<mxfile host="app.diagrams.net" modified="2023-01-31T07:32:52.155Z" agent="5.0 (Windows NT 10.0; Win64; x64) AppleWebKit/537.36 (KHTML, like Gecko) Chrome/109.0.0.0 Safari/537.36" version="20.8.3" etag="XP0wA_x3gMQpD7gOryCd" type="github">
  <diagram id="PT3z5RParaZG4W954jeg" name="第 1 页">
    <mxGraphModel dx="1247" dy="229" grid="1" gridSize="10" guides="1" tooltips="1" connect="1" arrows="1" fold="1" page="1" pageScale="1" pageWidth="827" pageHeight="1169" math="0" shadow="0">
      <root>
        <mxCell id="0" />
        <mxCell id="1" parent="0" />
        <mxCell id="SI5dUTbrPntSYdzQ7jf7-1" style="edgeStyle=orthogonalEdgeStyle;rounded=0;orthogonalLoop=1;jettySize=auto;html=1;strokeColor=#000000;" edge="1" parent="1" source="SI5dUTbrPntSYdzQ7jf7-3" target="SI5dUTbrPntSYdzQ7jf7-8">
          <mxGeometry relative="1" as="geometry" />
        </mxCell>
        <mxCell id="SI5dUTbrPntSYdzQ7jf7-2" style="edgeStyle=orthogonalEdgeStyle;rounded=0;orthogonalLoop=1;jettySize=auto;html=1;entryX=0;entryY=0.5;entryDx=0;entryDy=0;strokeColor=#000000;" edge="1" parent="1" source="SI5dUTbrPntSYdzQ7jf7-3" target="SI5dUTbrPntSYdzQ7jf7-12">
          <mxGeometry relative="1" as="geometry">
            <Array as="points">
              <mxPoint x="160" y="55" />
            </Array>
          </mxGeometry>
        </mxCell>
        <mxCell id="SI5dUTbrPntSYdzQ7jf7-3" value="解析中" style="rounded=1;whiteSpace=wrap;html=1;" vertex="1" parent="1">
          <mxGeometry x="130" y="180" width="70" height="30" as="geometry" />
        </mxCell>
        <mxCell id="SI5dUTbrPntSYdzQ7jf7-4" value="" style="ellipse;html=1;shape=startState;fillColor=#000000;strokeColor=#000000;" vertex="1" parent="1">
          <mxGeometry x="-60" y="180" width="30" height="30" as="geometry" />
        </mxCell>
        <mxCell id="SI5dUTbrPntSYdzQ7jf7-5" value="" style="edgeStyle=orthogonalEdgeStyle;html=1;verticalAlign=bottom;endArrow=open;endSize=8;strokeColor=#000000;rounded=0;" edge="1" parent="1" source="SI5dUTbrPntSYdzQ7jf7-4">
          <mxGeometry relative="1" as="geometry">
            <mxPoint x="10" y="195" as="targetPoint" />
          </mxGeometry>
        </mxCell>
        <mxCell id="SI5dUTbrPntSYdzQ7jf7-7" style="edgeStyle=orthogonalEdgeStyle;rounded=0;orthogonalLoop=1;jettySize=auto;html=1;entryX=0;entryY=0.5;entryDx=0;entryDy=0;strokeColor=#000000;" edge="1" parent="1" source="SI5dUTbrPntSYdzQ7jf7-8" target="SI5dUTbrPntSYdzQ7jf7-10">
          <mxGeometry relative="1" as="geometry" />
        </mxCell>
        <mxCell id="SI5dUTbrPntSYdzQ7jf7-8" value="待审核" style="rounded=1;whiteSpace=wrap;html=1;" vertex="1" parent="1">
          <mxGeometry x="244" y="180" width="70" height="30" as="geometry" />
        </mxCell>
        <mxCell id="SI5dUTbrPntSYdzQ7jf7-9" style="edgeStyle=orthogonalEdgeStyle;rounded=0;orthogonalLoop=1;jettySize=auto;html=1;strokeColor=#000000;" edge="1" parent="1" source="SI5dUTbrPntSYdzQ7jf7-10" target="SI5dUTbrPntSYdzQ7jf7-16">
          <mxGeometry relative="1" as="geometry" />
        </mxCell>
        <mxCell id="SI5dUTbrPntSYdzQ7jf7-10" value="待COC配置" style="rounded=1;whiteSpace=wrap;html=1;" vertex="1" parent="1">
          <mxGeometry x="350" y="180" width="70" height="30" as="geometry" />
        </mxCell>
        <mxCell id="SI5dUTbrPntSYdzQ7jf7-11" style="edgeStyle=orthogonalEdgeStyle;rounded=0;orthogonalLoop=1;jettySize=auto;html=1;strokeColor=#000000;" edge="1" parent="1" source="SI5dUTbrPntSYdzQ7jf7-12" target="SI5dUTbrPntSYdzQ7jf7-19">
          <mxGeometry relative="1" as="geometry" />
        </mxCell>
        <mxCell id="SI5dUTbrPntSYdzQ7jf7-12" value="解析失败" style="rounded=1;whiteSpace=wrap;html=1;" vertex="1" parent="1">
          <mxGeometry x="244" y="40" width="70" height="30" as="geometry" />
        </mxCell>
        <mxCell id="SI5dUTbrPntSYdzQ7jf7-13" style="edgeStyle=orthogonalEdgeStyle;rounded=0;orthogonalLoop=1;jettySize=auto;html=1;entryX=0;entryY=0.5;entryDx=0;entryDy=0;strokeColor=#000000;" edge="1" parent="1" source="SI5dUTbrPntSYdzQ7jf7-15" target="SI5dUTbrPntSYdzQ7jf7-19">
          <mxGeometry relative="1" as="geometry" />
        </mxCell>
        <mxCell id="SI5dUTbrPntSYdzQ7jf7-14" style="edgeStyle=orthogonalEdgeStyle;rounded=0;orthogonalLoop=1;jettySize=auto;html=1;entryX=0.5;entryY=1;entryDx=0;entryDy=0;strokeColor=#000000;" edge="1" parent="1" source="SI5dUTbrPntSYdzQ7jf7-15" target="SI5dUTbrPntSYdzQ7jf7-18">
          <mxGeometry relative="1" as="geometry" />
        </mxCell>
        <mxCell id="SI5dUTbrPntSYdzQ7jf7-15" value="有效" style="rounded=1;whiteSpace=wrap;html=1;" vertex="1" parent="1">
          <mxGeometry x="550" y="180" width="70" height="30" as="geometry" />
        </mxCell>
        <mxCell id="SI5dUTbrPntSYdzQ7jf7-16" value="COC进行中" style="rounded=1;whiteSpace=wrap;html=1;" vertex="1" parent="1">
          <mxGeometry x="450" y="180" width="70" height="30" as="geometry" />
        </mxCell>
        <mxCell id="SI5dUTbrPntSYdzQ7jf7-17" style="edgeStyle=orthogonalEdgeStyle;rounded=0;orthogonalLoop=1;jettySize=auto;html=1;strokeColor=#000000;" edge="1" parent="1" source="SI5dUTbrPntSYdzQ7jf7-18" target="SI5dUTbrPntSYdzQ7jf7-19">
          <mxGeometry relative="1" as="geometry" />
        </mxCell>
        <mxCell id="SI5dUTbrPntSYdzQ7jf7-18" value="失效" style="rounded=1;whiteSpace=wrap;html=1;" vertex="1" parent="1">
          <mxGeometry x="550" y="90" width="70" height="30" as="geometry" />
        </mxCell>
        <mxCell id="SI5dUTbrPntSYdzQ7jf7-19" value="" style="ellipse;html=1;shape=endState;fillColor=#000000;strokeColor=#ff0000;" vertex="1" parent="1">
          <mxGeometry x="680" y="180" width="30" height="30" as="geometry" />
        </mxCell>
        <mxCell id="SI5dUTbrPntSYdzQ7jf7-20" value="" style="endArrow=classic;html=1;rounded=0;strokeColor=#000000;exitX=1;exitY=0.5;exitDx=0;exitDy=0;entryX=0;entryY=0.5;entryDx=0;entryDy=0;edgeStyle=orthogonalEdgeStyle;" edge="1" parent="1" source="SI5dUTbrPntSYdzQ7jf7-16" target="SI5dUTbrPntSYdzQ7jf7-15">
          <mxGeometry width="50" height="50" relative="1" as="geometry">
            <mxPoint x="270" y="280" as="sourcePoint" />
            <mxPoint x="320" y="230" as="targetPoint" />
          </mxGeometry>
        </mxCell>
        <mxCell id="SI5dUTbrPntSYdzQ7jf7-21" value="开始" style="text;html=1;align=center;verticalAlign=middle;resizable=0;points=[];autosize=1;strokeColor=none;fillColor=none;" vertex="1" parent="1">
          <mxGeometry x="-70" y="210" width="50" height="30" as="geometry" />
        </mxCell>
        <mxCell id="SI5dUTbrPntSYdzQ7jf7-22" value="结束" style="text;html=1;align=center;verticalAlign=middle;resizable=0;points=[];autosize=1;strokeColor=none;fillColor=none;" vertex="1" parent="1">
          <mxGeometry x="670" y="220" width="50" height="30" as="geometry" />
        </mxCell>
        <mxCell id="SI5dUTbrPntSYdzQ7jf7-23" value="" style="endArrow=classic;html=1;rounded=0;strokeColor=#000000;exitX=0.438;exitY=0.026;exitDx=0;exitDy=0;exitPerimeter=0;edgeStyle=orthogonalEdgeStyle;" edge="1" parent="1" source="SI5dUTbrPntSYdzQ7jf7-8" target="SI5dUTbrPntSYdzQ7jf7-18">
          <mxGeometry width="50" height="50" relative="1" as="geometry">
            <mxPoint x="270" y="280" as="sourcePoint" />
            <mxPoint x="320" y="230" as="targetPoint" />
            <Array as="points">
              <mxPoint x="275" y="160" />
              <mxPoint x="275" y="105" />
            </Array>
          </mxGeometry>
        </mxCell>
        <mxCell id="SI5dUTbrPntSYdzQ7jf7-24" value="解析异常" style="text;html=1;align=center;verticalAlign=middle;resizable=0;points=[];autosize=1;strokeColor=none;fillColor=none;" vertex="1" parent="1">
          <mxGeometry x="100" y="105" width="70" height="30" as="geometry" />
        </mxCell>
        <mxCell id="SI5dUTbrPntSYdzQ7jf7-25" value="解析成功" style="text;html=1;align=center;verticalAlign=middle;resizable=0;points=[];autosize=1;strokeColor=none;fillColor=none;" vertex="1" parent="1">
          <mxGeometry x="194" y="150" width="70" height="30" as="geometry" />
        </mxCell>
        <mxCell id="SI5dUTbrPntSYdzQ7jf7-26" value="审核通过" style="text;html=1;align=center;verticalAlign=middle;resizable=0;points=[];autosize=1;strokeColor=none;fillColor=none;" vertex="1" parent="1">
          <mxGeometry x="300" y="160" width="70" height="30" as="geometry" />
        </mxCell>
        <mxCell id="SI5dUTbrPntSYdzQ7jf7-27" value="配置" style="text;html=1;align=center;verticalAlign=middle;resizable=0;points=[];autosize=1;strokeColor=none;fillColor=none;" vertex="1" parent="1">
          <mxGeometry x="410" y="160" width="50" height="30" as="geometry" />
        </mxCell>
        <mxCell id="SI5dUTbrPntSYdzQ7jf7-28" value="审核不通过" style="text;html=1;align=center;verticalAlign=middle;resizable=0;points=[];autosize=1;strokeColor=none;fillColor=none;" vertex="1" parent="1">
          <mxGeometry x="370" y="70" width="80" height="30" as="geometry" />
        </mxCell>
        <mxCell id="SI5dUTbrPntSYdzQ7jf7-29" value="版本失效" style="text;html=1;align=center;verticalAlign=middle;resizable=0;points=[];autosize=1;strokeColor=none;fillColor=none;" vertex="1" parent="1">
          <mxGeometry x="580" y="130" width="70" height="30" as="geometry" />
        </mxCell>
        <mxCell id="SI5dUTbrPntSYdzQ7jf7-30" value="COC完成" style="text;html=1;align=center;verticalAlign=middle;resizable=0;points=[];autosize=1;strokeColor=none;fillColor=none;" vertex="1" parent="1">
          <mxGeometry x="495" y="155" width="70" height="30" as="geometry" />
        </mxCell>
        <mxCell id="SI5dUTbrPntSYdzQ7jf7-32" style="edgeStyle=orthogonalEdgeStyle;rounded=0;orthogonalLoop=1;jettySize=auto;html=1;entryX=0;entryY=0.5;entryDx=0;entryDy=0;" edge="1" parent="1" source="SI5dUTbrPntSYdzQ7jf7-31" target="SI5dUTbrPntSYdzQ7jf7-3">
          <mxGeometry relative="1" as="geometry" />
        </mxCell>
        <mxCell id="SI5dUTbrPntSYdzQ7jf7-31" value="手册传输中" style="rounded=1;whiteSpace=wrap;html=1;" vertex="1" parent="1">
          <mxGeometry x="10" y="180" width="70" height="30" as="geometry" />
        </mxCell>
        <mxCell id="SI5dUTbrPntSYdzQ7jf7-33" value="" style="endArrow=classic;html=1;rounded=0;entryX=0.452;entryY=0.975;entryDx=0;entryDy=0;entryPerimeter=0;" edge="1" parent="1" source="SI5dUTbrPntSYdzQ7jf7-4" target="SI5dUTbrPntSYdzQ7jf7-3">
          <mxGeometry width="50" height="50" relative="1" as="geometry">
            <mxPoint x="130" y="210" as="sourcePoint" />
            <mxPoint x="180" y="160" as="targetPoint" />
            <Array as="points">
              <mxPoint x="-45" y="250" />
              <mxPoint x="162" y="250" />
            </Array>
          </mxGeometry>
        </mxCell>
      </root>
    </mxGraphModel>
  </diagram>
</mxfile>
